<svg width="20" height="20" viewBox="0 0 20 20" fill="none" xmlns="http://www.w3.org/2000/svg">
<g clip-path="url(#clip0_210_2)">
<path d="M15.7415 1.56248C16.0995 1.20444 16.5851 1.0033 17.0915 1.0033C17.5978 1.0033 18.0834 1.20444 18.4415 1.56248C18.7995 1.92053 19.0007 2.40614 19.0007 2.91248C19.0007 3.41883 18.7995 3.90444 18.4415 4.26248L10.3298 12.3751C10.1161 12.5886 9.85208 12.7449 9.56209 12.8296L6.97639 13.5856C6.89895 13.6082 6.81686 13.6095 6.73871 13.5895C6.66056 13.5695 6.58923 13.5288 6.53219 13.4718C6.47515 13.4147 6.43449 13.3434 6.41447 13.2653C6.39445 13.1871 6.3958 13.105 6.41839 13.0276L7.17439 10.4419C7.25946 10.1521 7.41607 9.88844 7.62979 9.67508L15.7415 1.56248Z" stroke="white" stroke-width="2" stroke-linecap="round" stroke-linejoin="round"/>
<path d="M10.0004 1.90002H4.90039C3.24354 1.90002 1.90039 3.24317 1.90039 4.90002V15.1C1.90039 16.7569 3.24353 18.1 4.90039 18.1H15.1004C16.7572 18.1 18.1004 16.7569 18.1004 15.1V10" stroke="white" stroke-width="2" stroke-linecap="round"/>
</g>
<defs>
<clipPath id="clip0_210_2">
<rect width="20" height="20" fill="white"/>
</clipPath>
</defs>
</svg>
