<svg width="20" height="20" viewBox="0 0 20 20" fill="none" xmlns="http://www.w3.org/2000/svg">
<g clip-path="url(#clip0_220_23)">
<path d="M18.0013 2.91248C18.0013 2.67142 17.9051 2.44039 17.7347 2.2699C17.5643 2.09946 17.3332 2.00338 17.0921 2.0033C16.851 2.0033 16.6191 2.09939 16.4486 2.2699L8.33629 10.3832C8.24149 10.4779 8.1719 10.5954 8.13414 10.724L8.13316 10.723L7.65953 12.3431L9.2816 11.8695C9.37817 11.8412 9.46917 11.7951 9.5482 11.7338L9.6234 11.6674L17.7347 3.55505L17.7953 3.48865C17.9278 3.32688 18.0013 3.12342 18.0013 2.91248ZM20.0013 2.91248C20.0013 3.68397 19.6943 4.42355 19.1488 4.96912L11.0375 13.0824C10.7467 13.3729 10.3953 13.5954 10.0101 13.7347L9.84312 13.7894L7.25719 14.5453C7.00764 14.6181 6.74239 14.6225 6.49058 14.558C6.23898 14.4935 6.00925 14.3627 5.82555 14.1791C5.64174 13.9953 5.51017 13.7649 5.44566 13.5131C5.38128 13.2614 5.38562 12.9968 5.45836 12.7474L6.21519 10.1615C6.34752 9.71082 6.59081 9.29902 6.9232 8.96716L15.0345 0.855835C15.5801 0.310256 16.3206 0.0032959 17.0921 0.0032959C17.8636 0.00337721 18.6033 0.310329 19.1488 0.855835C19.6943 1.4014 20.0013 2.14098 20.0013 2.91248Z" fill="white"/>
<path d="M0.900391 15.1002V4.90002C0.900391 2.69088 2.69125 0.900025 4.90039 0.900024H10C10.5523 0.900024 11 1.34774 11 1.90002C11 2.45231 10.5523 2.90002 10 2.90002H4.90039C3.79582 2.90002 2.90039 3.79546 2.90039 4.90002V15.1002C2.9005 16.2047 3.79589 17.1002 4.90039 17.1002H15.1006C16.205 17.1001 17.1005 16.2046 17.1006 15.1002V9.99963C17.1008 9.44753 17.5484 8.99963 18.1006 8.99963C18.6527 8.99974 19.1004 9.44759 19.1006 9.99963V15.1002C19.1005 17.3092 17.3096 19.1001 15.1006 19.1002H4.90039C2.69132 19.1002 0.900496 17.3093 0.900391 15.1002Z" fill="white"/>
</g>
<defs>
<clipPath id="clip0_220_23">
<rect width="20" height="20" fill="white"/>
</clipPath>
</defs>
</svg>
