<svg width="20" height="20" viewBox="0 0 20 20" fill="none" xmlns="http://www.w3.org/2000/svg">
<path d="M14.7842 2.9688C15.0826 2.67043 15.4873 2.50281 15.9092 2.50281C16.3312 2.50281 16.7359 2.67043 17.0342 2.9688C17.3326 3.26717 17.5002 3.67184 17.5002 4.0938C17.5002 4.51575 17.3326 4.92043 17.0342 5.2188L10.2745 11.9793C10.0964 12.1572 9.8764 12.2875 9.63475 12.358L7.48 12.988C7.41546 13.0069 7.34705 13.008 7.28193 12.9913C7.21681 12.9746 7.15737 12.9407 7.10983 12.8932C7.0623 12.8457 7.02842 12.7862 7.01173 12.7211C6.99505 12.656 6.99618 12.5876 7.015 12.523L7.645 10.3683C7.71589 10.1268 7.8464 9.90709 8.0245 9.7293L14.7842 2.9688Z" stroke="white" stroke-width="1.4" stroke-linecap="round" stroke-linejoin="round"/>
<path d="M10 3.25H6.25C4.59315 3.25 3.25 4.59315 3.25 6.25V13.75C3.25 15.4069 4.59315 16.75 6.25 16.75H13.75C15.4069 16.75 16.75 15.4069 16.75 13.75V10" stroke="white" stroke-width="1.4" stroke-linecap="round"/>
</svg>
