<svg width="20" height="20" viewBox="0 0 20 20" fill="none" xmlns="http://www.w3.org/2000/svg">
<g clip-path="url(#clip0_210_5)">
<path d="M10.0004 1.90002V17.2C10.0004 17.4387 9.90557 17.6676 9.73679 17.8364C9.568 18.0052 9.33909 18.1 9.10039 18.1H3.70039C3.223 18.1 2.76516 17.9104 2.4276 17.5728C2.09003 17.2353 1.90039 16.7774 1.90039 16.3V3.70002C1.90039 3.22263 2.09003 2.7648 2.4276 2.42723C2.76516 2.08967 3.223 1.90002 3.70039 1.90002H16.3004C16.7778 1.90002 17.2356 2.08967 17.5732 2.42723C17.9107 2.7648 18.1004 3.22263 18.1004 3.70002V9.10002C18.1004 9.33872 18.0056 9.56764 17.8368 9.73642C17.668 9.9052 17.4391 10 17.2004 10H1.90039" stroke="white" stroke-width="2" stroke-linecap="round" stroke-linejoin="round"/>
<path d="M13.5996 16.3H18.9996" stroke="white" stroke-width="2" stroke-linecap="round" stroke-linejoin="round"/>
<path d="M16.3008 19V13.6" stroke="white" stroke-width="2" stroke-linecap="round" stroke-linejoin="round"/>
</g>
<defs>
<clipPath id="clip0_210_5">
<rect width="20" height="20" fill="white"/>
</clipPath>
</defs>
</svg>
