<svg width="20" height="20" viewBox="0 0 20 20" fill="none" xmlns="http://www.w3.org/2000/svg">
<path d="M10 3.25V16C10 16.1989 9.92098 16.3897 9.78033 16.5303C9.63968 16.671 9.44891 16.75 9.25 16.75H4.75C4.35218 16.75 3.97064 16.592 3.68934 16.3107C3.40804 16.0294 3.25 15.6478 3.25 15.25V4.75C3.25 4.35218 3.40804 3.97064 3.68934 3.68934C3.97064 3.40804 4.35218 3.25 4.75 3.25H15.25C15.6478 3.25 16.0294 3.40804 16.3107 3.68934C16.592 3.97064 16.75 4.35218 16.75 4.75V9.25C16.75 9.44891 16.671 9.63968 16.5303 9.78033C16.3897 9.92098 16.1989 10 16 10H3.25" stroke="white" stroke-width="1.4" stroke-linecap="round" stroke-linejoin="round"/>
<path d="M13 15.25H17.5" stroke="white" stroke-width="1.4" stroke-linecap="round" stroke-linejoin="round"/>
<path d="M15.25 17.5V13" stroke="white" stroke-width="1.4" stroke-linecap="round" stroke-linejoin="round"/>
</svg>
