<svg width="20" height="20" viewBox="0 0 20 20" fill="none" xmlns="http://www.w3.org/2000/svg">
<path d="M16 16C16.3978 16 16.7794 15.842 17.0607 15.5607C17.342 15.2794 17.5 14.8978 17.5 14.5V7C17.5 6.60218 17.342 6.22064 17.0607 5.93934C16.7794 5.65804 16.3978 5.5 16 5.5H10.075C9.82414 5.50246 9.57666 5.44196 9.35523 5.32403C9.13379 5.20611 8.94547 5.03453 8.8075 4.825L8.2 3.925C8.06342 3.7176 7.87748 3.54736 7.65887 3.42955C7.44027 3.31174 7.19583 3.25004 6.9475 3.25H4C3.60218 3.25 3.22064 3.40804 2.93934 3.68934C2.65804 3.97064 2.5 4.35218 2.5 4.75V14.5C2.5 14.8978 2.65804 15.2794 2.93934 15.5607C3.22064 15.842 3.60218 16 4 16H16Z" stroke="white" stroke-width="1.4" stroke-linecap="round" stroke-linejoin="round"/>
<path d="M2.5 8.5H17.5" stroke="white" stroke-width="1.4" stroke-linecap="round" stroke-linejoin="round"/>
</svg>
