<svg width="20" height="20" viewBox="0 0 20 20" fill="none" xmlns="http://www.w3.org/2000/svg">
<path d="M5.5 11.5001L6.625 9.32507C6.7473 9.08218 6.93334 8.8771 7.16321 8.73178C7.39307 8.58646 7.65812 8.50637 7.93 8.50007H16M16 8.50007C16.2291 8.49967 16.4553 8.55177 16.6612 8.65238C16.8671 8.75299 17.0472 8.89944 17.1877 9.08047C17.3282 9.26151 17.4253 9.47232 17.4716 9.69674C17.518 9.92115 17.5123 10.1532 17.455 10.3751L16.3 14.8751C16.2164 15.1987 16.0272 15.4852 15.7622 15.689C15.4972 15.8929 15.1718 16.0023 14.8375 16.0001H4C3.60218 16.0001 3.22064 15.842 2.93934 15.5607C2.65804 15.2794 2.5 14.8979 2.5 14.5001V4.75007C2.5 4.35225 2.65804 3.97072 2.93934 3.68941C3.22064 3.40811 3.60218 3.25007 4 3.25007H6.925C7.17586 3.24761 7.42334 3.30811 7.64477 3.42604C7.86621 3.54396 8.05453 3.71554 8.1925 3.92507L8.8 4.82507C8.93658 5.03247 9.12252 5.20271 9.34113 5.32052C9.55973 5.43834 9.80417 5.50003 10.0525 5.50007H14.5C14.8978 5.50007 15.2794 5.65811 15.5607 5.93941C15.842 6.22072 16 6.60225 16 7.00007V8.50007Z" stroke="white" stroke-width="1.4" stroke-linecap="round" stroke-linejoin="round"/>
</svg>
